<?xml version="1.0" encoding="UTF-8" standalone="no"?>
<!-- Created with Inkscape (http://www.inkscape.org/) -->

<svg
   xmlns:dc="http://purl.org/dc/elements/1.1/"
   xmlns:cc="http://creativecommons.org/ns#"
   xmlns:rdf="http://www.w3.org/1999/02/22-rdf-syntax-ns#"
   xmlns:svg="http://www.w3.org/2000/svg"
   xmlns="http://www.w3.org/2000/svg"
   xmlns:xlink="http://www.w3.org/1999/xlink"
   xmlns:sodipodi="http://sodipodi.sourceforge.net/DTD/sodipodi-0.dtd"
   xmlns:inkscape="http://www.inkscape.org/namespaces/inkscape"
   width="160mm"
   height="90mm"
   viewBox="0 0 160 90"
   version="1.1"
   id="svg8"
   inkscape:version="0.92.4 5da689c313, 2019-01-14"
   sodipodi:docname="background.svg"
   inkscape:export-filename="/home/kulych/prog/mff/1819/cpp/fruit-fever/svg/background.png"
   inkscape:export-xdpi="254"
   inkscape:export-ydpi="254">
  <defs
     id="defs2">
    <linearGradient
       inkscape:collect="always"
       id="linearGradient4595">
      <stop
         style="stop-color:#ffff00;stop-opacity:1"
         offset="0"
         id="stop4591" />
      <stop
         style="stop-color:#6ddeff;stop-opacity:1"
         offset="1"
         id="stop4593" />
    </linearGradient>
    <linearGradient
       inkscape:collect="always"
       id="linearGradient855">
      <stop
         style="stop-color:#008000;stop-opacity:1;"
         offset="0"
         id="stop851" />
      <stop
         style="stop-color:#008000;stop-opacity:0;"
         offset="1"
         id="stop853" />
    </linearGradient>
    <linearGradient
       inkscape:collect="always"
       xlink:href="#linearGradient855"
       id="linearGradient857"
       x1="62.541069"
       y1="297.13364"
       x2="62.541069"
       y2="254.78091"
       gradientUnits="userSpaceOnUse"
       gradientTransform="matrix(1.25,0,0,0.62707405,0,110.75901)" />
    <radialGradient
       inkscape:collect="always"
       xlink:href="#linearGradient4595"
       id="radialGradient4597"
       cx="-73.166466"
       cy="83.652214"
       fx="-73.166466"
       fy="83.652214"
       r="80"
       gradientTransform="matrix(-0.14265171,0.34505454,-0.34465472,-0.14249363,155.50832,263.96558)"
       gradientUnits="userSpaceOnUse" />
  </defs>
  <sodipodi:namedview
     id="base"
     pagecolor="#ffffff"
     bordercolor="#666666"
     borderopacity="1.0"
     inkscape:pageopacity="0.0"
     inkscape:pageshadow="2"
     inkscape:zoom="0.79685059"
     inkscape:cx="201.20945"
     inkscape:cy="177.63641"
     inkscape:document-units="mm"
     inkscape:current-layer="layer1"
     showgrid="false"
     inkscape:window-width="1918"
     inkscape:window-height="538"
     inkscape:window-x="0"
     inkscape:window-y="540"
     inkscape:window-maximized="0"
     units="mm"
     width="1600in" />
  <metadata
     id="metadata5">
    <rdf:RDF>
      <cc:Work
         rdf:about="">
        <dc:format>image/svg+xml</dc:format>
        <dc:type
           rdf:resource="http://purl.org/dc/dcmitype/StillImage" />
        <dc:title></dc:title>
      </cc:Work>
    </rdf:RDF>
  </metadata>
  <g
     inkscape:label="Layer 1"
     inkscape:groupmode="layer"
     id="layer1"
     transform="translate(0,-207)">
    <rect
       style="opacity:1;fill:url(#radialGradient4597);fill-opacity:1;fill-rule:nonzero;stroke:none;stroke-width:3;stroke-miterlimit:4;stroke-dasharray:none;stroke-dashoffset:0;stroke-opacity:1;paint-order:stroke markers fill"
       id="rect4589"
       width="160"
       height="90"
       x="0"
       y="207" />
    <rect
       style="opacity:1;fill:url(#linearGradient857);fill-opacity:1;fill-rule:nonzero;stroke:none;stroke-width:2.60487771;stroke-miterlimit:4;stroke-dasharray:none;stroke-dashoffset:0;stroke-opacity:1;paint-order:stroke markers fill"
       id="rect839"
       width="160"
       height="30"
       x="8.8817842e-16"
       y="267" />
    <path
       style="opacity:1;fill:none;fill-opacity:1;fill-rule:nonzero;stroke:none;stroke-width:4.04949379;stroke-miterlimit:4;stroke-dasharray:none;stroke-dashoffset:0;stroke-opacity:1;paint-order:stroke markers fill"
       d="m 115.93414,252.39952 c -11.23536,-2.47215 -20.765002,-11.34575 -27.840931,-25.92432 -1.2935,-2.665 -2.903157,-6.42877 -3.577014,-8.36393 l -1.225197,-3.51848 -10.107,0.0802 c -5.558846,0.0441 -12.035568,-0.0948 -14.39271,-0.30875 -26.411016,-2.39725 -38.278555,-11.19145 -35.004231,-25.93918 4.202951,-18.93033 18.171842,-31.63649 37.591998,-34.19382 l 3.126518,-0.41171 -1.964285,-1.20634 c -5.301253,-3.25568 -13.416399,-9.6207 -17.793072,-13.95577 -6.054124,-5.99659 -9.306565,-11.29266 -9.619294,-15.66346 -0.104938,-1.46665 -5.36e-4,-2.99794 0.257735,-3.78053 1.063648,-3.22289 7.599343,-8.4768 13.745251,-11.04952 6.675102,-2.79425 13.593912,-4.1512 22.535112,-4.41967 l 6.44716,-0.19359 1.536036,-2.99975 C 87.885502,84.468108 99.23722,71.22194 108.99637,66.307311 c 4.57209,-2.302469 6.81049,-2.843792 11.7592,-2.843792 3.95086,0 4.79683,0.114222 7.35572,0.993155 8.74355,3.003259 19.44062,13.167186 24.51435,23.29256 5.75369,11.482307 5.59144,25.894806 -0.42592,37.835076 -0.78581,1.5593 -1.37223,2.89161 -1.30314,2.9607 0.0691,0.0691 2.59688,0.69953 5.6173,1.401 14.84276,3.44706 27.74529,8.41148 36.0539,13.87221 3.91933,2.57594 8.8816,7.67155 10.29779,10.57452 3.79997,7.78933 1.32681,15.50984 -8.14378,25.4226 -8.8147,9.22624 -20.80851,14.14605 -32.49228,13.32819 -6.391,-0.44737 -13.75897,-2.41427 -19.07067,-5.09097 -1.45865,-0.73504 -1.73405,-0.78002 -1.91345,-0.3125 -0.14016,0.36526 1.01559,1.825 3.48959,4.40747 5.63966,5.8869 10.55069,13.20163 12.82797,19.10661 1.94329,5.03895 2.30053,6.86012 2.28995,11.67367 -0.009,3.91853 -0.12558,4.78451 -0.95686,7.08378 -1.38745,3.83762 -2.96743,6.28207 -6.17618,9.55537 -5.84517,5.96275 -15.80275,11.16082 -24.56364,12.82273 -3.42673,0.65004 -9.29103,0.65476 -12.22208,0.01 z"
       id="path885"
       inkscape:connector-curvature="0"
       transform="matrix(0.26458333,0,0,0.26458333,0,169)" />
    <path
       style="opacity:1;fill:none;fill-opacity:1;fill-rule:nonzero;stroke:none;stroke-width:4.04949379;stroke-miterlimit:4;stroke-dasharray:none;stroke-dashoffset:0;stroke-opacity:1;paint-order:stroke markers fill"
       d="m 115.93414,252.39952 c -11.23536,-2.47215 -20.765002,-11.34575 -27.840931,-25.92432 -1.2935,-2.665 -2.903157,-6.42877 -3.577014,-8.36393 l -1.225197,-3.51848 -10.107,0.0802 c -5.558846,0.0441 -12.035568,-0.0948 -14.39271,-0.30875 -26.411016,-2.39725 -38.278555,-11.19145 -35.004231,-25.93918 4.202951,-18.93033 18.171842,-31.63649 37.591998,-34.19382 l 3.126518,-0.41171 -1.964285,-1.20634 c -5.301253,-3.25568 -13.416399,-9.6207 -17.793072,-13.95577 -6.054124,-5.99659 -9.306565,-11.29266 -9.619294,-15.66346 -0.104938,-1.46665 -5.36e-4,-2.99794 0.257735,-3.78053 1.063648,-3.22289 7.599343,-8.4768 13.745251,-11.04952 6.675102,-2.79425 13.593912,-4.1512 22.535112,-4.41967 l 6.44716,-0.19359 1.536036,-2.99975 C 87.885502,84.468108 99.23722,71.22194 108.99637,66.307311 c 4.57209,-2.302469 6.81049,-2.843792 11.7592,-2.843792 3.95086,0 4.79683,0.114222 7.35572,0.993155 8.74355,3.003259 19.44062,13.167186 24.51435,23.29256 5.75369,11.482307 5.59144,25.894806 -0.42592,37.835076 -0.78581,1.5593 -1.37223,2.89161 -1.30314,2.9607 0.0691,0.0691 2.59688,0.69953 5.6173,1.401 14.84276,3.44706 27.74529,8.41148 36.0539,13.87221 3.91933,2.57594 8.8816,7.67155 10.29779,10.57452 3.79997,7.78933 1.32681,15.50984 -8.14378,25.4226 -8.8147,9.22624 -20.80851,14.14605 -32.49228,13.32819 -6.391,-0.44737 -13.75897,-2.41427 -19.07067,-5.09097 -1.45865,-0.73504 -1.73405,-0.78002 -1.91345,-0.3125 -0.14016,0.36526 1.01559,1.825 3.48959,4.40747 5.63966,5.8869 10.55069,13.20163 12.82797,19.10661 1.94329,5.03895 2.30053,6.86012 2.28995,11.67367 -0.009,3.91853 -0.12558,4.78451 -0.95686,7.08378 -1.38745,3.83762 -2.96743,6.28207 -6.17618,9.55537 -5.84517,5.96275 -15.80275,11.16082 -24.56364,12.82273 -3.42673,0.65004 -9.29103,0.65476 -12.22208,0.01 z"
       id="path887"
       inkscape:connector-curvature="0"
       transform="matrix(0.26458333,0,0,0.26458333,0,169)" />
    <path
       style="opacity:1;fill:#ececec;fill-opacity:0.60648151;fill-rule:nonzero;stroke:#e5e5e5;stroke-width:1.19547057;stroke-miterlimit:4;stroke-dasharray:none;stroke-dashoffset:0;stroke-opacity:0.38888891;paint-order:stroke markers fill"
       d="m 40.78418,238.06148 c -0.820857,2.6969 -3.82798,5.21428 -8.344242,6.98524 -0.810773,0.31793 -2.061212,0.73947 -2.778738,0.93676 l -1.304606,0.3587 0.04581,0.86783 c 0.02515,0.47731 0.06536,1.16549 0.08926,1.52929 0.07669,1.16511 -0.15085,4.53202 -0.397213,5.87778 -0.805494,4.39982 -2.575002,6.86023 -5.351499,7.44097 -0.980085,0.205 -1.695694,0.18363 -3.117836,-0.0931 -4.207814,-0.81884 -7.437534,-2.84114 -9.29359,-5.81919 -0.8873869,-1.42383 -1.5336269,-3.37534 -1.5336269,-4.63123 0,-0.25305 -0.03971,-0.45925 -0.08827,-0.45822 -0.04855,0.001 -0.247048,0.22121 -0.44116,0.48928 -0.1941,0.26808 -0.765818,0.95429 -1.270483,1.52491 -3.3587206,3.79771 -6.64481158,6.01889 -8.8988286,6.01501 -1.151752,-0.002 -2.225906,-0.67274 -3.403303,-2.1252 -1.560033,-1.92448 -2.484631,-4.86929 -2.485776,-7.91712 l -3.24e-4,-1.3433 -1.440592,-0.58805 c -2.9301225,-1.19608 -5.6690975,-2.73051 -7.7165895,-4.32297 -1.613964,-1.25529 -2.554859,-2.23616 -3.251208,-3.38935 -1.861609,-3.08288 -0.872958,-5.83731 3.21615,-8.96038 2.529151,-1.93165 5.208268,-2.99255 8.3163805,-3.29318 2.619957,-0.25342 6.121138,0.3252 8.32604102,1.37599 0.376672,0.17951 0.700769,0.32638 0.720216,0.32638 0.01942,0 0.07022,-0.18072 0.112792,-0.4016 0.152543,-0.79081 1.02067098,-3.47786 1.55384498,-4.80953 1.721926,-4.30071 3.7932336,-7.14234 6.1156476,-8.39004 1.041274,-0.55943 1.804191,-0.76192 2.8706889,-0.76192 1.907286,0 3.940312,0.91156 6.25426,2.80428 2.313065,1.892 3.588863,3.91709 3.991093,6.33511 0.334418,2.01039 -0.220966,4.56003 -1.443293,6.62582 -0.443078,0.74883 -0.455577,0.79438 -0.25204,0.91831 0.117772,0.0717 0.245392,0.13176 0.283549,0.13341 0.0381,0.002 0.473529,-0.31227 0.967475,-0.69762 1.740512,-1.35782 3.661069,-2.4999 5.455688,-3.24426 3.212875,-1.33263 6.114166,-1.44504 8.612454,-0.33368 2.535486,1.12789 5.172175,4.42373 5.945799,7.43217 0.256546,0.99767 0.227327,2.64602 -0.06387,3.60272 z"
       id="path941"
       inkscape:connector-curvature="0" />
  </g>
</svg>
